<?xml version="1.0" standalone="no"?>
<!DOCTYPE svg PUBLIC "-//W3C//DTD SVG 20010904//EN"
 "http://www.w3.org/TR/2001/REC-SVG-20010904/DTD/svg10.dtd">
<svg version="1.0" xmlns="http://www.w3.org/2000/svg"
 width="512.000000pt" height="512.000000pt" viewBox="0 0 512.000000 512.000000"
 preserveAspectRatio="xMidYMid meet">

<g transform="translate(0.000000,512.000000) scale(0.100000,-0.100000)"
fill="#e4a30b" stroke="none">
<path d="M2403 5106 c-326 -63 -600 -282 -767 -617 -31 -60 -60 -126 -67 -147
-9 -33 -20 -42 -84 -75 -128 -66 -228 -188 -269 -326 -18 -62 -21 -193 -5
-261 49 -215 273 -396 495 -401 l61 -2 35 -71 c76 -152 208 -308 336 -395 217
-147 488 -172 724 -68 179 80 356 261 461 473 l30 61 61 2 c220 5 434 175 491
392 20 72 19 202 -1 270 -41 138 -141 260 -269 326 -63 32 -75 42 -84 73 -17
57 -96 213 -148 292 -58 88 -184 223 -273 290 -85 65 -245 143 -345 169 -103
26 -284 33 -382 15z m357 -166 c199 -56 383 -196 517 -395 36 -54 113 -196
113 -210 0 -3 -9 -5 -19 -5 -14 0 -27 16 -44 54 -67 146 -214 323 -340 408
-142 96 -260 133 -432 133 -166 -1 -279 -36 -425 -135 -122 -83 -262 -251
-336 -402 -19 -39 -34 -58 -46 -58 -24 0 -24 -1 17 80 91 181 232 343 378 434
82 51 205 99 297 115 80 14 233 5 320 -19z m-85 -175 c296 -62 543 -363 611
-745 19 -110 19 -321 0 -432 -68 -382 -298 -669 -596 -744 -91 -23 -232 -15
-322 19 -81 29 -157 74 -218 128 l-45 40 55 -7 c35 -4 65 -15 82 -29 98 -82
282 -69 346 25 44 66 16 145 -68 188 -78 39 -215 26 -272 -25 -16 -14 -26 -15
-86 -4 -144 26 -227 85 -266 189 -58 156 -77 266 -77 442 1 324 109 595 316
788 158 148 350 207 540 167z m-969 -617 c-54 -256 -54 -438 1 -692 l6 -28
-44 7 c-24 4 -71 20 -104 35 -230 110 -286 398 -115 584 56 61 161 113 254
125 5 0 5 -14 2 -31z m1822 0 c143 -53 242 -193 242 -341 0 -134 -62 -243
-178 -318 -43 -27 -167 -67 -178 -56 -3 3 1 36 10 74 41 181 41 396 1 588 -8
38 -15 73 -15 77 0 10 55 -1 118 -24z"/>
<path d="M1834 2692 c-266 -233 -534 -396 -793 -482 -123 -41 -265 -70 -343
-70 -58 0 -92 -15 -107 -47 -8 -16 -11 -164 -11 -468 l0 -444 24 -28 24 -28
435 -3 435 -3 4 -97 c3 -83 6 -102 27 -131 27 -38 90 -70 137 -71 28 0 32 -4
44 -43 7 -23 25 -67 41 -98 l28 -57 -21 -18 c-45 -41 -61 -125 -34 -187 7 -18
51 -69 98 -114 64 -62 93 -83 121 -88 54 -10 103 2 142 36 l34 30 58 -29 c32
-17 77 -35 101 -42 38 -12 42 -16 42 -44 0 -55 40 -118 90 -143 38 -20 60 -23
150 -23 90 0 112 3 150 23 50 25 90 88 90 143 0 28 4 32 43 44 23 7 68 25 100
41 l58 30 37 -31 c43 -34 86 -45 139 -35 28 5 57 26 121 88 46 45 90 94 98
109 29 55 11 151 -34 192 l-21 18 28 57 c16 31 34 75 41 97 12 39 15 42 58 48
105 14 152 80 152 214 l0 81 436 3 436 3 24 28 24 28 0 444 c0 304 -3 452 -11
468 -15 32 -49 47 -107 47 -71 0 -215 28 -322 62 -273 87 -553 257 -834 507
-43 38 -78 61 -93 61 -17 0 -57 -33 -141 -118 -91 -92 -133 -126 -189 -155
-86 -45 -205 -77 -283 -77 -78 0 -197 32 -283 76 -56 29 -97 63 -189 156 -85
86 -124 118 -141 118 -16 0 -55 -27 -113 -78z m139 -147 c73 -92 249 -204 387
-247 108 -33 292 -33 400 0 139 43 301 146 384 244 l35 41 58 -50 c344 -295
757 -498 1096 -538 l57 -6 0 -355 0 -354 -427 3 c-308 3 -444 7 -484 17 -54
12 -57 15 -69 54 -7 23 -25 66 -41 97 l-28 57 21 18 c45 41 61 125 34 187 -7
18 -51 69 -98 114 -65 63 -93 83 -122 88 -47 9 -105 -7 -145 -41 l-30 -25 -48
24 c-26 13 -72 32 -100 41 -49 16 -53 20 -53 50 0 55 -39 118 -90 144 -38 19
-60 22 -150 22 -90 0 -112 -3 -150 -22 -51 -26 -90 -89 -90 -144 0 -30 -4 -34
-52 -50 -29 -9 -75 -28 -101 -41 l-48 -24 -30 25 c-40 34 -98 50 -145 41 -30
-5 -57 -25 -122 -88 -46 -45 -90 -94 -98 -109 -29 -55 -11 -151 34 -192 l21
-18 -28 -57 c-16 -31 -34 -74 -41 -97 -12 -39 -15 -42 -69 -54 -40 -10 -176
-14 -483 -17 l-428 -3 0 353 0 354 88 12 c308 42 644 201 978 463 56 43 110
88 119 98 24 26 25 26 58 -15z m675 -636 c4 -81 19 -98 112 -123 36 -9 103
-37 149 -62 46 -24 95 -44 109 -44 18 0 42 15 73 46 l48 47 60 -58 c40 -38 64
-54 73 -49 17 10 -3 -16 -59 -78 -24 -26 -43 -54 -43 -63 0 -8 20 -55 44 -103
24 -48 53 -119 65 -158 27 -91 43 -105 126 -112 l66 -5 -3 -86 -3 -86 -65 -3
c-81 -4 -94 -15 -121 -106 -12 -39 -41 -110 -65 -159 -24 -48 -44 -94 -44
-103 0 -8 20 -37 45 -63 25 -26 45 -52 45 -57 0 -5 -27 -36 -60 -69 l-60 -59
-48 47 c-27 27 -57 47 -69 47 -12 0 -61 -20 -110 -44 -48 -24 -120 -54 -159
-65 -39 -12 -78 -29 -87 -39 -10 -11 -17 -40 -19 -82 l-3 -65 -85 0 -85 0 -3
65 c-2 42 -9 71 -19 82 -9 10 -48 27 -87 39 -39 11 -111 41 -159 65 -49 24
-97 44 -108 44 -11 0 -42 -21 -70 -47 l-50 -47 -59 59 c-33 33 -60 64 -60 69
0 5 20 31 45 57 25 26 45 55 45 63 0 9 -20 55 -44 103 -24 49 -53 120 -65 159
-27 91 -40 102 -121 106 l-65 3 -3 86 -3 86 66 5 c83 7 99 21 126 112 12 39
41 110 65 159 24 48 44 94 44 103 0 8 -20 37 -45 63 -25 26 -45 52 -45 57 0 5
27 36 60 69 l60 59 48 -47 c30 -30 57 -47 72 -47 13 0 69 22 124 49 56 27 124
54 151 61 76 17 95 41 95 115 0 34 3 65 7 69 4 4 43 5 88 4 l80 -3 3 -66z"/>
<path d="M2392 1720 c-142 -38 -289 -142 -377 -265 -87 -121 -127 -249 -126
-400 1 -264 155 -491 415 -614 78 -37 156 -53 260 -53 180 1 331 67 471 207
115 114 174 235 194 395 17 133 -18 294 -91 418 -72 124 -232 252 -376 304
-86 30 -273 35 -370 8z m294 -146 c123 -35 259 -138 318 -239 14 -24 26 -46
26 -49 0 -3 -211 -6 -470 -6 -258 0 -470 3 -470 6 0 3 12 25 26 49 59 101 202
208 319 240 68 19 186 18 251 -1z m394 -523 c0 -175 -96 -337 -257 -434 -96
-58 -162 -77 -265 -77 -97 0 -176 24 -273 84 -152 95 -245 258 -245 428 l0 68
520 0 520 0 0 -69z"/>
</g>
</svg>
