<?xml version="1.0" standalone="no"?>
<!DOCTYPE svg PUBLIC "-//W3C//DTD SVG 20010904//EN"
 "http://www.w3.org/TR/2001/REC-SVG-20010904/DTD/svg10.dtd">
<svg version="1.0" xmlns="http://www.w3.org/2000/svg"
 width="512.000000pt" height="512.000000pt" viewBox="0 0 512.000000 512.000000"
 preserveAspectRatio="xMidYMid meet">

<g transform="translate(0.000000,512.000000) scale(0.100000,-0.100000)"
fill="#e4a30b" stroke="none">
<path d="M3005 5108 c-11 -6 -41 -29 -66 -52 -26 -23 -65 -56 -88 -74 -51 -41
-57 -88 -15 -121 37 -29 61 -26 121 14 l51 34 22 -82 c41 -152 53 -238 54
-397 2 -297 -65 -482 -233 -650 -285 -285 -813 -389 -1343 -266 -104 24 -305
94 -398 138 -134 63 -160 55 -200 -70 -53 -164 -156 -302 -265 -354 -92 -43
-96 -42 -142 60 -124 269 -197 577 -178 745 21 193 193 324 375 288 92 -18
109 -8 161 97 33 68 60 104 123 167 88 88 143 124 251 162 110 39 220 40 560
7 358 -35 743 -41 807 -12 40 18 55 49 44 94 -10 40 -56 53 -146 42 -105 -14
-356 -4 -685 27 -347 33 -500 31 -612 -8 -204 -72 -358 -195 -453 -363 l-28
-51 -89 -6 c-105 -7 -188 -34 -263 -86 -67 -46 -140 -140 -170 -218 -70 -182
-6 -575 149 -916 35 -77 37 -87 18 -87 -33 0 -138 -64 -182 -111 -72 -77 -100
-146 -100 -249 0 -72 5 -94 28 -145 50 -106 134 -178 259 -219 l72 -23 23 -87
c34 -129 74 -218 105 -235 24 -14 30 -14 62 2 52 25 54 50 12 170 -58 163 -66
225 -66 517 l0 258 33 6 c54 10 169 71 220 116 64 56 129 149 178 254 l40 86
37 -16 c311 -133 605 -192 910 -181 231 8 413 45 602 123 47 20 93 38 103 41
16 5 17 -17 17 -375 l0 -380 -136 -33 c-75 -18 -146 -40 -158 -50 -21 -17 -21
-24 -24 -350 -2 -200 1 -344 7 -361 9 -26 6 -31 -57 -85 -137 -116 -275 -189
-445 -235 -111 -30 -405 -33 -507 -5 -227 63 -372 149 -544 323 -92 93 -118
103 -161 59 -39 -38 -32 -66 36 -145 103 -120 240 -224 390 -296 l79 -38 0
-113 0 -113 -247 0 c-285 0 -348 -9 -463 -67 -100 -50 -194 -144 -243 -241
-63 -127 -68 -171 -65 -575 l3 -359 24 -19 c23 -19 65 -19 1723 -19 l1699 0
24 25 25 24 0 548 0 548 69 72 c74 77 121 159 144 253 8 29 19 56 25 58 6 2
69 -11 139 -28 140 -34 170 -31 192 16 16 35 16 1473 0 1507 -26 57 -10 60
-714 -108 -359 -85 -655 -155 -659 -155 -3 0 -6 186 -6 413 l0 412 76 75 c199
195 294 440 294 754 0 182 -25 337 -88 536 -47 151 -86 193 -147 158z m-2583
-2295 c2 -120 2 -220 1 -221 -5 -10 -73 22 -106 49 -122 101 -106 273 33 357
30 17 58 32 62 32 4 0 9 -98 10 -217z m3688 -543 c0 -505 -2 -620 -13 -620
-17 0 -1528 359 -1539 366 -4 3 -8 118 -8 255 0 210 2 251 15 255 28 11 1500
362 1523 363 l22 1 0 -620z m-1442 -439 c43 -10 89 -22 104 -25 l26 -6 -14
-52 c-17 -64 -18 -187 -3 -260 16 -79 71 -186 128 -250 44 -48 51 -62 51 -97
l0 -41 -57 47 c-32 25 -85 59 -119 75 -104 49 -173 58 -446 58 l-248 0 0 114
0 113 71 32 c107 48 230 133 327 227 48 46 91 83 95 84 5 0 43 -9 85 -19z
m690 -164 c216 -52 394 -96 397 -99 8 -8 -25 -120 -47 -160 l-22 -38 -12 46
c-14 56 -40 93 -85 119 -31 18 -52 20 -271 20 l-236 0 -44 -30 c-23 -17 -50
-46 -59 -64 -18 -39 -21 -36 -43 38 -26 90 -14 261 18 261 7 0 188 -42 404
-93z m-1713 -238 c81 0 171 6 213 14 l72 15 0 -107 0 -108 -132 -74 c-73 -41
-138 -76 -146 -77 -7 -2 -76 31 -153 74 l-139 78 0 107 0 107 73 -15 c41 -8
131 -14 212 -14z m1883 -236 l2 -203 -210 0 -210 0 0 205 0 205 208 -2 207 -3
3 -202z m-2529 -130 c11 -38 72 -252 136 -478 64 -226 118 -416 120 -423 3 -9
-31 -12 -152 -12 l-157 0 93 95 c88 89 93 97 87 127 -3 18 -14 40 -24 48 -10
8 -80 30 -156 49 l-138 34 6 71 c3 39 8 161 11 271 3 110 8 219 11 243 l5 42
69 0 69 0 20 -67z m371 2 c64 -36 125 -71 134 -78 14 -11 0 -28 -113 -142 -72
-71 -132 -127 -135 -125 -2 3 -27 88 -55 190 -29 102 -54 193 -57 203 -5 15 2
17 52 17 51 0 68 -6 174 -65z m778 48 c-44 -162 -113 -393 -118 -393 -3 0 -63
58 -134 129 l-128 129 133 76 c124 70 138 75 193 76 51 0 58 -2 54 -17z m306
-5 c3 -13 7 -113 11 -223 3 -110 8 -241 12 -291 l6 -91 -139 -34 c-76 -19
-147 -41 -158 -50 -13 -11 -20 -28 -20 -53 0 -33 10 -46 89 -126 l90 -90 -157
0 c-122 0 -156 3 -153 13 2 6 63 219 135 472 72 253 133 468 136 478 4 14 17
17 74 17 64 0 70 -2 74 -22z m-1774 -35 c0 -27 -5 -185 -12 -352 l-12 -304 27
-22 c15 -14 63 -32 122 -46 l96 -23 -88 -88 -88 -88 -197 0 -198 0 0 278 c0
152 5 306 11 342 24 154 130 282 272 331 29 10 55 18 60 19 4 0 7 -21 7 -47z
m2046 6 c114 -54 203 -176 224 -306 6 -32 10 -185 10 -340 l0 -283 -198 0
-197 0 -88 88 -88 88 101 24 c71 17 106 30 122 47 l22 23 -12 318 c-16 421
-18 384 16 376 15 -3 54 -19 88 -35z m-949 -350 c-33 -47 -133 -168 -137 -169
-5 0 -116 139 -134 168 -6 10 12 34 65 88 l74 74 72 -72 c63 -62 71 -74 60
-89z m1753 -239 l0 -340 -210 0 -210 0 0 340 0 340 210 0 210 0 0 -340z
m-2070 49 c39 -50 74 -97 77 -105 5 -12 -136 -199 -144 -190 -2 2 -23 71 -47
154 l-43 150 41 41 c22 23 41 41 42 41 1 0 34 -41 74 -91z m487 49 l41 -43
-40 -140 c-22 -77 -44 -144 -48 -148 -4 -5 -41 35 -83 89 l-75 97 76 94 c42
51 79 93 82 93 3 0 24 -19 47 -42z m-237 -350 c30 -40 57 -75 58 -80 2 -4 -53
-8 -123 -8 l-126 0 63 79 c35 44 65 80 68 80 3 0 30 -32 60 -71z"/>
<path d="M4846 3159 c-21 -11 -99 -61 -172 -110 -163 -109 -178 -130 -131
-185 41 -47 67 -39 241 76 200 131 215 152 157 211 -35 35 -44 35 -95 8z"/>
<path d="M1442 3047 c-20 -21 -22 -34 -22 -133 0 -103 2 -112 23 -132 23 -22
51 -27 82 -16 31 12 45 60 45 149 0 89 -14 137 -45 149 -32 12 -62 6 -83 -17z"/>
<path d="M2259 3051 c-22 -18 -24 -28 -27 -130 -4 -107 -3 -111 22 -136 30
-30 64 -32 100 -4 25 20 26 23 26 134 0 111 -1 114 -26 134 -33 26 -65 27 -95
2z"/>
<path d="M1845 2496 c-93 -44 -144 -126 -145 -232 0 -185 196 -309 365 -230
158 74 203 260 95 396 -69 87 -209 116 -315 66z m183 -151 c57 -48 46 -139
-21 -171 -97 -47 -194 55 -140 146 32 55 111 67 161 25z"/>
<path d="M4545 2400 c-25 -28 -23 -76 4 -103 20 -21 31 -22 214 -25 213 -4
257 3 275 43 17 36 15 48 -9 79 l-20 26 -223 0 c-211 0 -224 -1 -241 -20z"/>
<path d="M4541 1834 c-25 -32 -26 -52 -4 -83 18 -27 306 -219 339 -227 35 -9
81 21 89 57 10 46 -9 65 -184 179 -171 112 -203 121 -240 74z"/>
</g>
</svg>
