<?xml version="1.0" standalone="no"?>
<!DOCTYPE svg PUBLIC "-//W3C//DTD SVG 20010904//EN"
 "http://www.w3.org/TR/2001/REC-SVG-20010904/DTD/svg10.dtd">
<svg version="1.0" xmlns="http://www.w3.org/2000/svg"
 width="512.000000pt" height="512.000000pt" viewBox="0 0 512.000000 512.000000"
 preserveAspectRatio="xMidYMid meet">

<g transform="translate(0.000000,512.000000) scale(0.100000,-0.100000)"
fill="#e4a30b" stroke="none">
<path d="M2325 4950 c-257 -26 -588 -121 -820 -235 -641 -315 -1105 -892
-1276 -1589 -50 -205 -63 -327 -63 -571 0 -241 13 -355 64 -563 196 -798 776
-1434 1552 -1701 927 -318 1960 -38 2596 704 501 584 693 1372 517 2115 -230
967 -1009 1678 -2000 1826 -122 18 -447 26 -570 14z m1263 -2254 c1 -1092 -1
-1492 -9 -1502 -10 -12 -206 -14 -1165 -14 -1034 0 -1154 2 -1168 16 -14 14
-16 144 -16 1284 l0 1269 150 3 150 3 37 38 38 37 3 180 3 180 987 -2 987 -3
3 -1489z m-2078 1300 c0 -146 0 -146 -122 -146 -52 0 -88 4 -86 10 3 10 200
250 205 250 2 0 3 -51 3 -114z m2364 -72 c14 -14 16 -163 16 -1493 0 -1233 -2
-1480 -14 -1490 -10 -8 -325 -10 -1177 -9 l-1164 3 -3 72 -3 73 1045 2 1044 3
27 25 c58 53 55 -26 55 1460 l0 1370 79 0 c59 0 84 -4 95 -16z"/>
<path d="M2412 3804 c-27 -18 -29 -55 -4 -77 17 -15 64 -17 469 -17 423 0 451
1 466 18 23 26 21 58 -5 76 -20 14 -80 16 -463 16 -383 0 -443 -2 -463 -16z"/>
<path d="M1537 3362 c-21 -23 -22 -56 -1 -76 14 -14 109 -16 903 -16 847 0
889 1 904 18 23 26 21 58 -5 76 -20 14 -122 16 -904 16 -841 0 -882 -1 -897
-18z"/>
<path d="M1488 2929 c-25 -14 -24 -75 1 -89 13 -7 319 -10 923 -10 802 0 906
2 926 16 27 18 29 55 4 77 -17 16 -96 17 -928 17 -599 -1 -915 -4 -926 -11z"/>
<path d="M2789 2766 c-19 -7 -46 -20 -60 -29 -16 -12 -44 -17 -92 -17 -82 0
-97 -7 -137 -66 -23 -32 -46 -51 -84 -68 -67 -30 -92 -62 -100 -130 -6 -41
-14 -60 -37 -82 -60 -57 -70 -98 -43 -177 14 -43 14 -51 -1 -97 -23 -68 -14
-111 34 -163 27 -30 41 -55 46 -87 9 -56 29 -96 55 -110 11 -6 20 -15 20 -21
0 -6 -36 -74 -80 -152 -44 -78 -80 -146 -80 -153 0 -6 9 -19 20 -29 19 -17 27
-18 91 -7 38 7 76 12 83 12 9 0 23 -27 37 -67 27 -85 35 -95 73 -91 28 3 38
15 121 161 79 139 92 157 110 151 23 -8 99 -10 132 -3 20 3 33 -15 111 -151
77 -134 93 -155 116 -158 39 -5 53 11 78 90 l23 70 50 -8 c27 -4 70 -8 95 -8
39 -1 45 2 54 25 8 23 -2 45 -73 169 -44 78 -81 144 -81 147 0 2 13 16 30 29
29 25 50 76 50 125 0 15 12 37 31 55 59 56 70 100 45 183 -11 37 -11 52 1 90
25 84 14 122 -54 189 -13 12 -23 32 -23 45 0 42 -22 99 -45 122 -14 12 -42 27
-64 34 -30 8 -49 23 -71 56 -44 65 -64 75 -141 75 -55 0 -77 5 -124 30 -64 34
-66 34 -116 16z m106 -127 c51 -26 66 -29 110 -24 l51 7 40 -54 c31 -42 50
-57 91 -71 l51 -19 7 -54 c5 -46 14 -63 50 -104 l44 -50 -14 -41 c-19 -52 -19
-91 -1 -150 14 -47 14 -47 -16 -75 -39 -38 -54 -69 -63 -127 -6 -40 -12 -50
-34 -59 -69 -27 -96 -46 -120 -85 l-26 -43 -65 0 c-53 0 -74 -5 -115 -29 l-50
-29 -57 29 c-44 22 -72 29 -120 30 l-63 0 -30 47 c-24 38 -41 51 -85 69 -30
12 -55 25 -56 30 -2 4 -5 29 -9 55 -4 35 -16 58 -47 93 -41 47 -42 47 -30 91
15 56 15 92 0 149 -11 42 -11 46 13 72 46 51 53 64 64 121 10 48 16 59 41 70
65 28 80 39 112 82 l35 45 66 1 c53 0 75 6 111 27 25 15 47 27 50 27 3 0 32
-14 65 -31z m-373 -1014 c23 -25 46 -38 74 -43 l41 -7 -46 -82 -46 -83 -18 42
c-23 54 -33 60 -84 53 -24 -4 -43 -3 -43 1 0 9 80 154 86 154 2 0 18 -16 36
-35z m683 -12 c15 -27 37 -63 48 -82 l20 -34 -47 7 c-55 9 -81 -7 -91 -55 -4
-16 -10 -29 -15 -29 -4 0 -28 36 -53 80 l-46 80 30 0 c39 0 82 23 103 54 9 15
18 26 20 26 2 0 16 -21 31 -47z"/>
<path d="M2733 2536 c-110 -28 -218 -118 -264 -221 -86 -194 4 -432 199 -523
50 -24 69 -27 162 -27 97 0 110 2 170 31 299 144 302 563 6 709 -85 42 -185
54 -273 31z m200 -112 c60 -20 126 -79 157 -140 35 -68 36 -198 2 -261 -68
-128 -209 -189 -347 -148 -83 24 -166 107 -191 190 -41 144 17 279 148 344 71
36 154 41 231 15z"/>
<path d="M2933 2283 c-7 -2 -39 -35 -72 -73 l-59 -69 -38 29 c-40 33 -61 37
-88 17 -34 -25 -17 -67 49 -119 86 -70 95 -67 192 45 93 108 102 128 74 156
-21 21 -34 24 -58 14z"/>
<path d="M1488 2489 c-10 -6 -18 -22 -18 -37 0 -58 -8 -57 330 -60 206 -2 316
1 330 8 29 15 36 56 15 80 -17 19 -33 20 -329 20 -193 0 -318 -4 -328 -11z"/>
<path d="M1481 2046 c-20 -24 -9 -69 19 -83 31 -16 515 -18 554 -3 34 12 44
54 21 80 -17 19 -33 20 -300 20 -234 0 -285 -2 -294 -14z"/>
<path d="M1474 1595 c-15 -23 -15 -27 0 -50 l16 -25 323 0 c238 0 326 3 335
12 19 19 15 66 -7 78 -13 6 -137 10 -335 10 l-316 0 -16 -25z"/>
</g>
</svg>
