<?xml version="1.0" encoding="utf-8"?>
<!-- Generator: Adobe Illustrator 27.3.1, SVG Export Plug-In . SVG Version: 6.00 Build 0)  -->
<svg version="1.1" id="Camada_1" xmlns="http://www.w3.org/2000/svg" xmlns:xlink="http://www.w3.org/1999/xlink" x="0px" y="0px"
	 viewBox="0 0 792 612" style="enable-background:new 0 0 792 612;" xml:space="preserve">
<style type="text/css">
	.st0{fill:#FFFFFF;stroke:#FFFFFF;stroke-width:5;stroke-miterlimit:10;}
	.st1{fill:none;stroke:#FFFFFF;stroke-miterlimit:10;}
	.st2{fill:#FFFFFF;stroke:#FFFFFF;stroke-width:7;stroke-miterlimit:10;}
	.st3{fill:none;stroke:#FFFFFF;stroke-width:7;stroke-miterlimit:10;}
</style>
<g>
	<g>
		<path class="st0" d="M240.22,399.25h-3.52c-0.19-1.71-0.38-3.96-0.38-7.89c-1.64,4.09-4.05,8.75-12.95,8.75
			c-14.26,0-17.15-15.9-17.15-33.19c0-21.33,6.09-32.93,18.7-32.93c14.16,0,15.2,12.91,15.39,16.78H236
			c-0.19-2.09-0.66-12.87-11.17-12.87c-10.15,0-14.09,11.23-14.09,28.83c0,16.79,2.81,29.46,12.97,29.46
			c10.31,0,12.39-8.89,12.39-24.92v-2.85h-12.77v-3.91h16.91V399.25z"/>
		<path class="st0" d="M256.56,376.14l-5.62,23.11h-4.23c0,0,15.96-64.41,15.96-64.41h5.5l16.61,64.41h-4.61l-5.71-23.11H256.56z
			 M273.4,372.22c-4.59-18.03-7.31-28.78-8.07-33.26h-0.19c-0.94,5.4-3.95,18.2-7.61,33.26H273.4z"/>
		<path class="st0" d="M330.82,369.58c0-12.64,0.19-24.38,0.38-30.83h-0.1c-2.45,10.44-9.75,40.43-15.48,60.5h-4.48
			c-4.32-16.61-11.99-49.04-14.54-60.59h-0.19c0.38,7.47,0.66,22.11,0.66,33.08v27.51h-4.21v-64.41h6.29
			c6.37,21.76,12.72,50.46,14.42,58.25h0.09c1.14-5.83,8.81-37.25,15.09-58.25h6.38v64.41h-4.31V369.58z"/>
		<path class="st0" d="M375.08,366.89h-22.01v28.44h24.28l-0.68,3.92h-27.83v-64.41h27.36v3.92h-23.14v24.21h22.01V366.89z"/>
		<path class="st0" d="M414.5,399.25l-15.89-64.41h4.52l7.9,32.61c2.26,9.25,5.17,21.58,6.02,27.37h0.19
			c0.85-4.95,4.42-18.02,6.86-27.46l8.36-32.52h4.33l-16.91,64.41H414.5z"/>
		<path class="st0" d="M470.9,366.89h-22.01v28.44h24.28l-0.68,3.92h-27.83v-64.41h27.36v3.92h-23.14v24.21h22.01V366.89z"/>
		<path class="st0" d="M486.07,368.21v31.04h-4.23v-64.41h14.95c10.25,0,15.29,6.15,15.29,16.02c0,9.83-4.55,13.98-8.79,15.31
			c6.58,1.99,8.12,7.92,8.12,16.63v2.55c0,5.15,0.1,10.4,0.94,13.89h-4.41c-0.85-2.93-0.86-9.06-0.86-14.08v-2.09
			c0-9.53-1.8-14.87-11.4-14.87H486.07z M486.07,364.31h10.02c8.39,0,11.5-5.34,11.5-13.44c0-7.06-3.2-12.13-11.1-12.13h-10.41
			V364.31z"/>
		<path class="st0" d="M523.45,383.04c0.47,7.43,4.32,13.08,12.12,13.08c7.43,0,11.64-3.78,11.64-12.86
			c0-7.7-2.83-11.66-11.98-16.09c-9.49-4.55-14.03-8.91-14.03-18.09c0-7.9,5.05-15,14.83-15c11.14,0,14.36,8.35,14.55,15.38h-4.22
			c-0.29-2.76-1.23-11.49-10.61-11.49c-7.22,0-10.23,5.06-10.23,10.71c0,7.13,3.19,10.51,11.59,14.57
			c11.08,5.39,14.52,10.87,14.52,19.71c0,10.21-5.41,17.05-16.16,17.05c-11.7,0-15.78-7.79-16.34-16.98H523.45z"/>
		<path class="st0" d="M588.1,366.89h-22.01v28.44h24.28l-0.68,3.92h-27.83v-64.41h27.36v3.92h-23.14v24.21h22.01V366.89z"/>
	</g>
</g>
<path class="st1" d="M-0.38,412.46"/>
<path class="st1" d="M-3.85,426.9"/>
<g>
	<path class="st2" d="M226.24,265.57"/>
	<path class="st3" d="M157.95,296.8c0.88-1.14,2.43-2.86,4.85-4.09c7.83-3.99,16.34,1.4,16.72,1.64c4.23,2.62,5.84,6.22,8.36,12.08
		c3.71,8.61,4.28,16.02,4.42,18.63c0.2,3.67,1.4,26.28-8.01,29.54c-5.25,1.82-12.57-2.81-13.51-3.72c-0.71-0.69-1.22-1.46-1.22-1.46
		c-0.25-0.46-0.5-0.93-0.75-1.39"/>
	<path class="st3" d="M150.31,336.14c-0.44,0.05-1.06,0.12-1.81,0.17c-0.6,0.04-1.74,0.09-2.99,0.06c-4.19-0.08-4.81-0.67-6.46-0.01
		c-2.15,0.85-1.88,2.15-4.1,3.58c-3.29,2.12-5.53,0.33-8.2,1.94c-0.91,0.55-0.44,0.92-2.83,5.91c-0.84,1.75-1.25,2.62-1.53,3.06
		c-2.25,3.59-10.66,5.04-16.37,2.38c-10.48-4.89-8.02-25.3-7.12-32.78c0.2-1.62,1.09-8.46,5.05-16.25c1.94-3.82,3.12-6.08,5.84-8.05
		c7.07-5.13,15.82-2.76,16.35-2.6c3.04,0.91,5.23,2.43,6.51,3.47"/>
	<path class="st3" d="M155.29,330.44c-0.69-0.96-1.09-2.11-1.09-3.36c0-3.31,2.84-5.99,6.34-5.99c0.44,0,0.86,0.04,1.28,0.12"/>
	<ellipse class="st3" cx="130.09" cy="327.08" rx="6.34" ry="5.99"/>
	<ellipse class="st3" cx="173.14" cy="305.72" rx="0.58" ry="0.54"/>
	<path class="st3" d="M179.47,310.11c0,0.3-0.26,0.54-0.58,0.54s-0.58-0.24-0.58-0.54c0-0.3,0.26-0.54,0.58-0.54
		S179.47,309.81,179.47,310.11z"/>
	<rect x="119.26" y="306.81" class="st3" width="0.63" height="9.39"/>
	
		<rect x="119.27" y="306.53" transform="matrix(-1.836970e-16 1 -1 -1.836970e-16 431.0735 191.9287)" class="st3" width="0.6" height="9.94"/>
	<path class="st3" d="M171.35,342.3c-0.02,0-0.07,0-0.12,0.02c-0.32,0.1-0.43,0.6-0.46,0.73c-0.3,1.29-1.43,2.16-2.92,9.81
		c-0.08,0.4-0.17,0.9-0.28,1.52c-0.1,0.58-0.21,1.31-0.34,2.25c-0.38,2.91-0.76,4.47-1.02,5.92c-0.54,3.03-1.36,10.44-1.02,19.08
		c0.23,5.83,0.9,10.18,2.04,17.55c0.5,3.2,0.97,5.87,1.33,7.75c-13.43-0.44-26.87-0.88-40.3-1.33c0.12-1.54,0.31-3.88,0.61-6.73
		c1.04-9.82,1.85-11.51,2.24-16.32c0.78-9.41-1.16-16.91-2.11-20.46c-0.38-1.42-0.68-2.44-1.21-3.85c-1.1-2.96-3.06-7.11-3.61-8.55
		c-0.14-0.37-0.29-0.76-0.29-0.76c0.13-0.3,0.26-0.61,0.39-0.91"/>
	<path class="st3" d="M120.31,293.63c-0.01-0.62,0.01-1.46,0.13-2.44c0,0,0.07-0.59,0.18-1.17c1.18-6.31,5.36-13.17,8.26-12.75
		c2.59,0.37,4.46,6.58,4.69,14.69c3.14-2.05,5.75-3.05,7.45-3.57c1.2-0.37,2.14-0.56,2.95-0.1c1.49,0.86,1.31,3.3,2.05,3.36
		c0.69,0.06,0.73-2.03,2.24-2.86c1.43-0.78,3.36-0.01,4.92,0.61c2.43,0.97,3.16,2.07,3.95,1.73c1.19-0.51,0.93-3.61,0.86-4.5
		c-0.49-6.52,0.3-19.09,5.87-23.56c1.07-0.86,2.9-1.88,6.02-2.04c0.7,1.48,1.69,3.75,2.55,6.63c0.67,2.26,1.41,6.03,1.22,22.34
		c-0.01,1.04-0.03,1.89-0.03,2.46"/>
	<path class="st3" d="M143.57,324.63c-0.76,2.08-2.64,3.42-4.69,3.34c-2.01-0.08-3.78-1.54-4.41-3.63
		c-0.79-6.78-1.45-12.48-2.16-17.95c-0.47-3.6-1.13-8.38,1.24-12.85c0.34-0.65,0.68-1.15,0.91-1.48c0.22-0.22,0.56-0.53,1-0.88
		c2.19-1.71,6.23-3.54,8.19-1.97c0.33,0.27,0.9,0.87,1.1,2.26c0.05,0.86,0.12,2.08,0.18,3.52c0.04,1.04,0.67,5.49-0.01,11.58
		C144.43,311,143.97,316.68,143.57,324.63z"/>
	<path class="st3" d="M157.05,310.52c-0.29,0.29-0.76,0.69-1.42,0.98c-0.87,0.39-1.35,0.29-2.97,0.44
		c-2.25,0.21-2.49,0.51-3.56,0.32c-0.93-0.16-1.63-0.53-2.08-0.82c-0.07-0.52-0.17-1.23-0.26-2.08c-0.29-2.82-0.33-5.21-0.31-6.92
		c0.06-3.65,0.45-6.53,0.69-8.05c0.18-1.13,0.37-2.08,0.51-2.75c0.19-0.37,0.55-0.95,1.16-1.47c0.28-0.24,1.73-1.42,3.43-1.14
		c0.74,0.12,1.5,0.71,3,1.88c0.64,0.5,1.15,0.93,1.48,1.24c0.24,0.6,0.55,1.47,0.82,2.55c0.27,1.09,0.45,2.25,0.51,6.84
		c0.05,4.29-0.08,5.4-0.32,6.51C157.53,309.09,157.26,309.94,157.05,310.52z"/>
	<path class="st3" d="M154.5,326.64c-0.16,0.21-0.42,0.51-0.81,0.77c-0.5,0.33-0.99,0.43-3.17,0.46c-1.91,0.02-2.33-0.05-2.77-0.35
		c-0.41-0.28-0.66-0.63-0.8-0.88c-0.09-0.15-0.33-0.5-0.5-0.92c-0.14-0.34-0.37-1.05-0.23-2.97c0.04-0.59,0.13-1.39,0.31-2.34
		c0.64,0.65,2.11,1.96,4.39,2.55c1.53,0.4,2.85,0.32,3.67,0.2c0.16,0.2,0.89,1.19,0.61,2.25
		C155.09,325.87,154.8,326.23,154.5,326.64z"/>
	<path class="st3" d="M148.55,344.97c0.13-8.08,2.57-11.09,4.08-12.34c2.67-2.21,4.59-3.37,4.59-3.37c2.25-1.35,3.27-1.58,4.08-2.86
		c1.11-1.75,1.13-4.37,0.1-5c-0.78-0.48-1.59,0.54-4.18,1.33c-1.53,0.46-4.18,1.27-6.72,0.18c-2.24-0.96-3.25-2.9-3.38-3.15
		c-1.55-3.08,0.02-6.18,0.2-6.53c3.15-0.07,5.66-0.42,7.35-0.71c4.79-0.84,6.64-1.93,10-1.73c2.78,0.16,4.98,1.1,6.33,1.81
		c1.26,0.51,3.41,1.56,5.42,3.67c0,0,2.11,2.21,3.25,5.13c1.9,4.86-1.06,13.68-8.67,21.32"/>
</g>
</svg>
